<svg width="1000" height="203" viewBox="0 0 1000 203" fill="none" xmlns="http://www.w3.org/2000/svg">
<g clip-path="url(#clip0_24_148)">
<path d="M71.881 7.75916C69.8631 17.9817 73.6323 28.9808 84.8637 40.6996C89.1279 37.9241 96.8947 36.5344 103.9 37.5929C86.3867 29.0989 78.5818 19.6492 71.881 7.75916ZM11.1133 10.1349C16.5843 27.8234 30.873 49.0375 49.342 64.0762C35.6016 63.2005 19.0096 58.2891 7.14232 54.4438C16.6452 67.8454 31.5735 74.5842 46.4866 79.6859C36.9798 86.4248 25.5047 93.2779 7.10425 94.42C27.9071 101.73 48.0475 97.8085 57.1088 94.6865C50.2938 107.974 18.7621 119.891 10.5422 124.002C30.8197 125.602 56.8804 119.814 74.1273 111.477C77.9345 120.842 73.5181 131.731 70.2819 141.097C69.5586 142.81 68.8352 144.486 68.1118 146.161C70.0535 144.828 71.9571 143.496 73.7846 142.125C82.7698 135.957 91.9833 129.98 96.4378 119.738C106.375 131.617 120.309 143.381 137.176 152.252C143.8 160.666 147.95 170.908 150.196 180.35C153.356 173.078 155.45 165.045 153.889 157.392C163.217 156.022 167.443 146.085 167.405 136.681C162.608 139.041 161.656 139.079 155.527 139.803C155.527 135.957 155.755 135.044 154.384 128.876C150.463 132.074 146.389 133.14 142.658 133.368C143.458 130.475 143.8 125.944 144.067 122.975C139.117 125.678 136.757 126.668 132.607 127.086C132.455 122.936 132.569 119.472 131.046 115.512C119.776 122.746 112.543 116.083 105.156 107.403C112.695 100.93 141.858 99.103 141.364 110.106C146.694 107.327 148.521 105.842 150.349 104.052C153.813 107.289 155.45 112.01 156.098 116.007C159.638 112.428 160.019 112.01 162.608 106.946C164.778 110.791 165.958 113.418 166.682 118.596C169.918 116.236 172.545 113.609 174.22 110.449C177.076 116.35 177.38 116.54 178.941 123.013C185.718 118.025 187.241 111.134 187.622 104.89C188.383 92.326 187.508 63.6954 175.819 50.4842C176.466 64.3046 170.832 77.1351 162.951 81.2088C158.154 83.0744 126.211 52.8067 110.563 45.6871C101.616 41.8037 92.2498 48.3903 84.7495 49.2279C55.9666 40.4331 31.8172 27.0087 11.1133 10.1349ZM112.733 58.1749C117.797 66.1321 124.992 72.2237 135.615 79.1149C128.228 80.219 110.563 76.564 106.032 69.9774C103.938 66.9697 108.735 61.868 112.733 58.1749ZM68.759 121.49C63.2766 123.85 57.6418 125.64 52.0832 126.934C51.1695 128.305 50.3319 129.637 49.5324 130.932C55.1671 132.95 61.5252 133.597 66.3224 131.998C67.5788 128.267 68.4164 124.65 68.759 121.49ZM42.8697 128.762L38.9863 129.333C26.8754 143.267 15.4193 168.624 20.62 187.165H34.3757C30.142 172.812 28.0823 154.004 42.8697 128.762ZM46.1058 136.947C43.8596 141.287 42.1463 145.361 40.8518 149.168C45.7632 151.719 51.9309 152.557 57.9083 152.29C59.6597 148.293 61.6395 143.991 63.4669 139.612C57.6038 140.298 51.5121 139.079 46.1058 136.947ZM88.5187 139.46C83.95 143.458 78.9244 147.189 73.7085 150.729C76.3736 163.674 86.4247 174.867 101.844 187.165H133.559C111.781 175.058 97.5419 159.258 88.5187 139.46ZM39.0243 155.907C38.0725 160.4 37.7679 164.55 37.8821 168.433C52.0832 173.84 61.6775 173.573 75.0029 169.994C72.2617 166.073 70.0535 161.999 68.5687 157.697C56.1189 161.276 47.4764 159.867 39.0243 155.907ZM79.6097 175.857C65.1041 180.007 53.4158 180.883 38.6817 175.972C39.367 179.931 40.3949 183.624 41.5371 187.165H91.0696C86.7674 183.434 82.9221 179.703 79.6097 175.857Z" fill="#C73032"/>
<g clip-path="url(#clip1_24_148)">
<path d="M109.407 136.01L147.679 142.331C297.987 141.1 527.075 137.309 625.853 141.326C660.35 142.729 754.479 158.852 810.356 164.352C774.62 169.16 637.331 164.665 585.91 166.942C616.493 168.038 776.065 174.494 810.356 174.342C978.976 173.599 991.395 151.031 994.611 131.137C997.826 111.242 982.864 83.7879 814.241 84.5318C779.948 84.6828 627.889 97.5212 596.911 98.8883C653.148 100.912 774.938 97.0724 810.356 102.319C748.411 108.21 663.275 123.762 625.853 125.609C524.998 130.589 297.443 129.874 146.16 129.938L109.406 136.009L109.407 136.01ZM778.631 115.375C827.774 107.258 867.558 108.112 917.363 114.917C882.547 113.333 842.708 114.927 814.241 119.629C772.976 126.445 771.234 137.21 810.356 143.672C815.698 144.554 821.529 145.309 827.719 145.94C809.927 142.035 812.637 136.258 835.254 132.522C859.878 128.455 899.169 128.282 922.51 132.138C945.854 135.993 944.804 142.483 920.18 146.55C918.54 146.821 916.832 147.073 915.071 147.309C915.245 147.299 915.421 147.29 915.594 147.28C863.45 155.045 832.741 153.217 785.088 145.346C735.764 137.199 726.602 123.969 778.631 115.375Z" fill="#C73032"/>
</g>
<path d="M269.297 77.7344C272.406 77.7344 274.969 78.1094 276.984 78.8594C279.016 79.6094 280.523 80.7422 281.508 82.2578C282.492 83.7734 282.984 85.6875 282.984 88C282.984 89.5625 282.688 90.9297 282.094 92.1016C281.5 93.2734 280.719 94.2656 279.75 95.0781C278.781 95.8906 277.734 96.5547 276.609 97.0703L286.688 112H278.625L270.445 98.8516H266.578V112H259.312V77.7344H269.297ZM268.781 83.6875H266.578V92.9453H268.922C271.328 92.9453 273.047 92.5469 274.078 91.75C275.125 90.9375 275.648 89.75 275.648 88.1875C275.648 86.5625 275.086 85.4062 273.961 84.7188C272.852 84.0312 271.125 83.6875 268.781 83.6875ZM316.884 85.7969V112H311.4L310.439 108.648H310.064C309.502 109.539 308.798 110.266 307.955 110.828C307.111 111.391 306.181 111.805 305.166 112.07C304.15 112.336 303.095 112.469 302.002 112.469C300.127 112.469 298.494 112.141 297.103 111.484C295.713 110.812 294.627 109.773 293.845 108.367C293.08 106.961 292.697 105.133 292.697 102.883V85.7969H299.845V101.102C299.845 102.977 300.181 104.391 300.853 105.344C301.525 106.297 302.595 106.773 304.064 106.773C305.517 106.773 306.658 106.445 307.486 105.789C308.314 105.117 308.892 104.141 309.22 102.859C309.564 101.562 309.736 99.9844 309.736 98.125V85.7969H316.884ZM333.933 112H326.784V75.5312H333.933V112ZM354.661 85.3047C357.083 85.3047 359.169 85.7734 360.919 86.7109C362.669 87.6328 364.02 88.9766 364.973 90.7422C365.927 92.5078 366.403 94.6641 366.403 97.2109V100.68H349.505C349.583 102.695 350.184 104.281 351.309 105.438C352.45 106.578 354.028 107.148 356.044 107.148C357.716 107.148 359.247 106.977 360.637 106.633C362.028 106.289 363.458 105.773 364.927 105.086V110.617C363.63 111.258 362.27 111.727 360.848 112.023C359.442 112.32 357.731 112.469 355.716 112.469C353.091 112.469 350.762 111.984 348.731 111.016C346.716 110.047 345.13 108.57 343.973 106.586C342.833 104.602 342.262 102.102 342.262 99.0859C342.262 96.0234 342.778 93.4766 343.809 91.4453C344.856 89.3984 346.309 87.8672 348.169 86.8516C350.028 85.8203 352.192 85.3047 354.661 85.3047ZM354.708 90.3906C353.317 90.3906 352.161 90.8359 351.239 91.7266C350.333 92.6172 349.809 94.0156 349.669 95.9219H359.7C359.684 94.8594 359.489 93.9141 359.114 93.0859C358.755 92.2578 358.208 91.6016 357.473 91.1172C356.755 90.6328 355.833 90.3906 354.708 90.3906ZM390.047 112V77.7344H397.312V106H411.211V112H390.047ZM429.759 85.2578C433.275 85.2578 435.97 86.0234 437.845 87.5547C439.72 89.0859 440.658 91.4141 440.658 94.5391V112H435.666L434.283 108.438H434.095C433.345 109.375 432.58 110.141 431.798 110.734C431.017 111.328 430.119 111.766 429.103 112.047C428.087 112.328 426.853 112.469 425.4 112.469C423.853 112.469 422.462 112.172 421.228 111.578C420.009 110.984 419.048 110.078 418.345 108.859C417.642 107.625 417.291 106.062 417.291 104.172C417.291 101.391 418.267 99.3438 420.22 98.0312C422.173 96.7031 425.103 95.9688 429.009 95.8281L433.556 95.6875V94.5391C433.556 93.1641 433.197 92.1562 432.478 91.5156C431.759 90.875 430.759 90.5547 429.478 90.5547C428.212 90.5547 426.97 90.7344 425.752 91.0938C424.533 91.4531 423.314 91.9062 422.095 92.4531L419.728 87.625C421.119 86.8906 422.673 86.3125 424.392 85.8906C426.127 85.4688 427.916 85.2578 429.759 85.2578ZM433.556 99.8594L430.791 99.9531C428.478 100.016 426.869 100.43 425.962 101.195C425.072 101.961 424.627 102.969 424.627 104.219C424.627 105.312 424.947 106.094 425.587 106.562C426.228 107.016 427.064 107.242 428.095 107.242C429.627 107.242 430.916 106.789 431.962 105.883C433.025 104.977 433.556 103.688 433.556 102.016V99.8594ZM471.98 112L469.964 102.836C469.855 102.289 469.675 101.484 469.425 100.422C469.175 99.3438 468.902 98.1953 468.605 96.9766C468.323 95.7422 468.058 94.6016 467.808 93.5547C467.573 92.5078 467.402 91.7422 467.292 91.2578H467.081C466.972 91.7422 466.8 92.5078 466.566 93.5547C466.331 94.6016 466.066 95.7422 465.769 96.9766C465.488 98.2109 465.222 99.375 464.972 100.469C464.722 101.547 464.534 102.367 464.409 102.93L462.3 112H454.613L447.159 85.7969H454.284L457.308 97.3984C457.511 98.2109 457.706 99.1797 457.894 100.305C458.081 101.414 458.245 102.492 458.386 103.539C458.542 104.57 458.659 105.391 458.738 106H458.925C458.956 105.547 459.019 104.945 459.113 104.195C459.222 103.445 459.339 102.672 459.464 101.875C459.605 101.062 459.73 100.336 459.839 99.6953C459.964 99.0391 460.058 98.5938 460.12 98.3594L463.355 85.7969H471.23L474.3 98.3594C474.409 98.8125 474.55 99.5312 474.722 100.516C474.909 101.5 475.073 102.516 475.214 103.562C475.355 104.594 475.433 105.406 475.448 106H475.636C475.698 105.469 475.808 104.68 475.964 103.633C476.12 102.586 476.3 101.492 476.503 100.352C476.722 99.1953 476.941 98.2109 477.159 97.3984L480.3 85.7969H487.308L479.761 112H471.98ZM490.2 85.7969H498.028L502.973 100.539C503.13 101.008 503.262 101.484 503.372 101.969C503.481 102.453 503.575 102.953 503.653 103.469C503.731 103.984 503.794 104.523 503.841 105.086H503.981C504.075 104.242 504.2 103.453 504.356 102.719C504.528 101.984 504.739 101.258 504.989 100.539L509.841 85.7969H517.505L506.419 115.352C505.747 117.164 504.872 118.672 503.794 119.875C502.716 121.094 501.473 122.008 500.067 122.617C498.677 123.227 497.145 123.531 495.473 123.531C494.661 123.531 493.958 123.484 493.364 123.391C492.77 123.312 492.262 123.227 491.841 123.133V117.461C492.169 117.539 492.583 117.609 493.083 117.672C493.583 117.734 494.106 117.766 494.653 117.766C495.653 117.766 496.512 117.555 497.231 117.133C497.95 116.711 498.552 116.141 499.036 115.422C499.52 114.719 499.903 113.945 500.184 113.102L500.606 111.812L490.2 85.7969ZM534.483 85.3047C536.905 85.3047 538.991 85.7734 540.741 86.7109C542.491 87.6328 543.842 88.9766 544.795 90.7422C545.748 92.5078 546.225 94.6641 546.225 97.2109V100.68H529.327C529.405 102.695 530.006 104.281 531.131 105.438C532.272 106.578 533.85 107.148 535.866 107.148C537.538 107.148 539.069 106.977 540.459 106.633C541.85 106.289 543.28 105.773 544.748 105.086V110.617C543.452 111.258 542.092 111.727 540.67 112.023C539.264 112.32 537.553 112.469 535.538 112.469C532.913 112.469 530.584 111.984 528.553 111.016C526.538 110.047 524.952 108.57 523.795 106.586C522.655 104.602 522.084 102.102 522.084 99.0859C522.084 96.0234 522.6 93.4766 523.631 91.4453C524.678 89.3984 526.131 87.8672 527.991 86.8516C529.85 85.8203 532.014 85.3047 534.483 85.3047ZM534.53 90.3906C533.139 90.3906 531.983 90.8359 531.061 91.7266C530.155 92.6172 529.631 94.0156 529.491 95.9219H539.522C539.506 94.8594 539.311 93.9141 538.936 93.0859C538.577 92.2578 538.03 91.6016 537.295 91.1172C536.577 90.6328 535.655 90.3906 534.53 90.3906ZM569.062 85.3047C569.422 85.3047 569.836 85.3281 570.305 85.375C570.789 85.4062 571.18 85.4531 571.477 85.5156L570.938 92.2188C570.703 92.1406 570.367 92.0859 569.93 92.0547C569.508 92.0078 569.141 91.9844 568.828 91.9844C567.906 91.9844 567.008 92.1016 566.133 92.3359C565.273 92.5703 564.5 92.9531 563.812 93.4844C563.125 94 562.578 94.6875 562.172 95.5469C561.781 96.3906 561.586 97.4297 561.586 98.6641V112H554.438V85.7969H559.852L560.906 90.2031H561.258C561.773 89.3125 562.414 88.5 563.18 87.7656C563.961 87.0156 564.844 86.4219 565.828 85.9844C566.828 85.5312 567.906 85.3047 569.062 85.3047Z" fill="#C73032"/>
</g>
<defs>
<clipPath id="clip0_24_148">
<rect width="1000" height="202.242" fill="white"/>
</clipPath>
<clipPath id="clip1_24_148">
<rect width="845.273" height="139.62" fill="white" transform="translate(172.515 62.6218)"/>
</clipPath>
</defs>
</svg>
